<svg width="419" height="416" viewBox="0 0 419 416" fill="none" xmlns="http://www.w3.org/2000/svg">
<g clip-path="url(#clip0_108_197)">
<path d="M2 345.27V303.603C2 303.603 106.167 261.937 210.333 261.937C314.5 261.937 418.667 303.603 418.667 303.603V345.27H2Z" fill="#1F4827"/>
<path d="M43.6667 45.0201C43.6667 45.0201 170.75 26.2701 195.75 107.52C212.417 -19.5632 397.833 1.27013 397.833 1.27013C397.833 1.27013 397.833 201.27 252 186.687C252 145.02 293.667 82.5201 293.667 82.5201C231.167 103.353 231.167 184.603 231.167 184.603V272.103H195.5C192.186 272.103 189.5 269.417 189.5 266.103V176.27C189.5 176.27 185.333 105.437 127 105.437C127 105.437 158.25 122.103 166.583 182.52C47.8333 207.52 43.6667 45.0201 43.6667 45.0201Z" fill="url(#paint0_angular_108_197)"/>
<path d="M33.8433 397.407C30.1744 401.076 25.8122 402.91 20.7567 402.91C17.1744 402.91 14.0689 402.289 11.44 401.047C8.84 399.804 6.77444 398.013 5.24333 395.673C3.71222 393.333 2.58556 390.661 1.86333 387.657C1.17 384.652 0.823334 381.229 0.823334 377.387C0.823334 374.527 0.967778 371.956 1.25667 369.673C1.57444 367.391 2.08 365.21 2.77333 363.13C3.46667 361.05 4.42 359.259 5.63333 357.757C6.84667 356.226 8.33444 354.897 10.0967 353.77C11.8589 352.643 13.9967 351.806 16.51 351.257C19.0233 350.679 21.8833 350.39 25.09 350.39C26.5344 350.39 27.9067 350.477 29.2067 350.65C30.5356 350.823 31.6622 351.04 32.5867 351.3C33.5111 351.531 34.3778 351.834 35.1867 352.21C36.0244 352.557 36.6744 352.874 37.1367 353.163C37.6278 353.423 38.0756 353.712 38.48 354.03C38.8844 354.348 39.13 354.564 39.2167 354.68C39.3322 354.796 39.4189 354.882 39.4767 354.94L38.8267 364.907H30.94L28.47 359.143C27.8344 358.797 26.8089 358.623 25.3933 358.623C24.2378 358.623 23.2844 358.724 22.5333 358.927C21.7822 359.129 21.0311 359.562 20.28 360.227C19.5578 360.862 18.98 361.801 18.5467 363.043C18.1422 364.257 17.81 365.918 17.55 368.027C17.29 370.107 17.16 372.649 17.16 375.653C17.16 381.922 17.4922 386.573 18.1567 389.607C18.85 392.64 20.2222 394.157 22.2733 394.157C23.2844 394.157 24.1367 394.07 24.83 393.897C25.5233 393.694 26.1733 393.348 26.78 392.857C27.3867 392.337 27.8344 391.586 28.1233 390.603C28.4122 389.592 28.5567 388.307 28.5567 386.747V382.327L22.8367 381.027V372.187H42.12L42.0767 402H34.3633L33.8433 397.407Z" fill="#65C375"/>
<path d="M60.9216 402H46.9249V373.963L44.3249 372.36V367.463L53.6416 365.167H57.1516L58.4083 375.48C59.5927 368.402 63.3916 364.863 69.8049 364.863C70.5271 364.863 71.2783 364.993 72.0583 365.253L70.5849 380.68C69.9783 380.131 68.6494 379.857 66.5983 379.857C63.6516 379.857 61.7594 380.637 60.9216 382.197V402Z" fill="#65C375"/>
<path d="M94.946 379.597C94.946 375.928 94.7583 373.328 94.3827 371.797C94.0072 370.266 93.3138 369.5 92.3027 369.5C91.436 369.5 90.7283 369.659 90.1794 369.977C89.6305 370.266 89.226 370.742 88.966 371.407C88.706 372.042 88.5327 372.707 88.446 373.4C88.3883 374.064 88.3594 374.917 88.3594 375.957V379.597H94.946ZM91.4794 402.91C88.2438 402.91 85.4272 402.419 83.0294 401.437C80.6605 400.454 78.7827 399.082 77.396 397.32C76.0383 395.558 75.0416 393.579 74.406 391.383C73.7705 389.159 73.4527 386.689 73.4527 383.973C73.4527 377.502 75.0994 372.606 78.3927 369.283C81.686 365.961 86.2938 364.3 92.216 364.3C97.9072 364.3 101.98 365.643 104.436 368.33C106.892 370.988 108.119 375.278 108.119 381.2V386.01H88.316V386.833C88.316 388.538 88.4894 389.939 88.836 391.037C89.2116 392.134 89.746 392.943 90.4394 393.463C91.1327 393.983 91.8405 394.33 92.5627 394.503C93.2849 394.677 94.166 394.763 95.206 394.763C96.2172 394.763 97.3005 394.633 98.456 394.373C99.6405 394.113 100.825 393.709 102.009 393.16C103.223 392.611 104.234 391.961 105.043 391.21L107.599 395.587C106.53 397.32 104.956 398.779 102.876 399.963C100.825 401.119 98.846 401.899 96.9394 402.303C95.0327 402.708 93.2127 402.91 91.4794 402.91Z" fill="#65C375"/>
<path d="M132.27 379.597C132.27 375.928 132.082 373.328 131.707 371.797C131.331 370.266 130.638 369.5 129.627 369.5C128.76 369.5 128.052 369.659 127.504 369.977C126.955 370.266 126.55 370.742 126.29 371.407C126.03 372.042 125.857 372.707 125.77 373.4C125.712 374.064 125.684 374.917 125.684 375.957V379.597H132.27ZM128.804 402.91C125.568 402.91 122.751 402.419 120.354 401.437C117.985 400.454 116.107 399.082 114.72 397.32C113.362 395.558 112.366 393.579 111.73 391.383C111.095 389.159 110.777 386.689 110.777 383.973C110.777 377.502 112.424 372.606 115.717 369.283C119.01 365.961 123.618 364.3 129.54 364.3C135.231 364.3 139.305 365.643 141.76 368.33C144.216 370.988 145.444 375.278 145.444 381.2V386.01H125.64V386.833C125.64 388.538 125.814 389.939 126.16 391.037C126.536 392.134 127.07 392.943 127.764 393.463C128.457 393.983 129.165 394.33 129.887 394.503C130.609 394.677 131.49 394.763 132.53 394.763C133.541 394.763 134.625 394.633 135.78 394.373C136.965 394.113 138.149 393.709 139.334 393.16C140.547 392.611 141.558 391.961 142.367 391.21L144.924 395.587C143.855 397.32 142.28 398.779 140.2 399.963C138.149 401.119 136.17 401.899 134.264 402.303C132.357 402.708 130.537 402.91 128.804 402.91Z" fill="#65C375"/>
<path d="M164.134 402H150.138V373.963L147.538 372.36V367.723L156.854 365.167H164.221V370.757L164.741 370.107C165.088 369.644 165.593 369.096 166.258 368.46C166.951 367.824 167.717 367.203 168.554 366.597C169.392 365.961 170.389 365.427 171.544 364.993C172.729 364.531 173.884 364.3 175.011 364.3C178.969 364.3 181.757 365.383 183.374 367.55C185.021 369.717 185.844 373.342 185.844 378.427C185.844 378.6 185.844 378.86 185.844 379.207C185.816 379.553 185.801 379.828 185.801 380.03V402H171.501V378.773C171.588 376.058 170.432 374.7 168.034 374.7C167.861 374.7 167.688 374.714 167.514 374.743C167.37 374.772 167.226 374.801 167.081 374.83C166.966 374.859 166.821 374.917 166.648 375.003C166.503 375.061 166.373 375.119 166.258 375.177C166.142 375.206 166.012 375.278 165.868 375.393C165.723 375.48 165.608 375.552 165.521 375.61C165.434 375.668 165.304 375.769 165.131 375.913C164.987 376.029 164.871 376.116 164.784 376.173C164.727 376.231 164.611 376.332 164.438 376.477C164.293 376.592 164.192 376.679 164.134 376.737V402Z" fill="#65C375"/>
<path d="M223.31 402.91C221.085 402.91 219.005 402.708 217.07 402.303C215.163 401.928 213.56 401.422 212.26 400.787C210.96 400.151 209.891 399.544 209.053 398.967C208.244 398.389 207.565 397.811 207.017 397.233L208.1 386.703C209.284 388.292 210.873 389.679 212.867 390.863C214.86 392.019 217.012 392.597 219.323 392.597C221.634 392.597 223.295 392.351 224.307 391.86C225.347 391.369 225.867 390.473 225.867 389.173C225.867 387.787 225.274 386.602 224.09 385.62C222.934 384.638 220.927 383.453 218.067 382.067C217.027 381.547 216.145 381.084 215.423 380.68C214.701 380.247 213.733 379.553 212.52 378.6C211.335 377.618 210.368 376.607 209.617 375.567C208.865 374.498 208.201 373.14 207.623 371.493C207.045 369.818 206.757 368.027 206.757 366.12C206.757 355.807 212.578 350.65 224.22 350.65C226.069 350.65 227.802 350.852 229.42 351.257C231.067 351.632 232.352 352.051 233.277 352.513C234.201 352.976 235.039 353.524 235.79 354.16C236.57 354.767 237.061 355.2 237.263 355.46C237.465 355.691 237.61 355.879 237.697 356.023L235.53 364.387C234.403 363.058 232.988 362.076 231.283 361.44C229.608 360.776 228.004 360.443 226.473 360.443C222.775 360.443 220.927 361.599 220.927 363.91C220.927 364.517 221.042 365.066 221.273 365.557C221.504 366.048 221.88 366.496 222.4 366.9C222.92 367.304 223.397 367.651 223.83 367.94C224.292 368.229 224.913 368.59 225.693 369.023C226.502 369.428 227.109 369.76 227.513 370.02C231.731 371.811 234.822 373.934 236.787 376.39C238.78 378.846 239.777 381.836 239.777 385.36C239.777 391.08 238.361 395.442 235.53 398.447C232.728 401.422 228.654 402.91 223.31 402.91Z" fill="#65C375"/>
<path d="M267.032 402C265.356 402 263.825 401.827 262.438 401.48C261.052 401.133 259.838 400.7 258.798 400.18V415.087H244.845V373.963L242.245 372.36V367.723L251.562 365.167H258.798V368.07C259.838 367.001 261.095 366.106 262.568 365.383C264.042 364.661 265.76 364.3 267.725 364.3C272.492 364.3 275.987 365.932 278.212 369.197C280.465 372.461 281.592 376.982 281.592 382.76C281.592 385.476 281.288 387.989 280.682 390.3C280.075 392.582 279.179 394.604 277.995 396.367C276.81 398.129 275.279 399.516 273.402 400.527C271.553 401.509 269.429 402 267.032 402ZM260.661 395.977C264.533 395.977 266.468 393.016 266.468 387.093V379.727C266.468 377.127 266.02 375.191 265.125 373.92C264.258 372.649 263.132 372.013 261.745 372.013C260.792 372.013 259.809 372.302 258.798 372.88V395.76C259.145 395.847 259.463 395.904 259.751 395.933C260.069 395.962 260.373 395.977 260.661 395.977Z" fill="#65C375"/>
<path d="M300.609 402H286.612V373.963L284.012 372.36V367.463L293.329 365.167H296.839L298.096 375.48C299.28 368.402 303.079 364.863 309.492 364.863C310.215 364.863 310.966 364.993 311.746 365.253L310.272 380.68C309.666 380.131 308.337 379.857 306.286 379.857C303.339 379.857 301.447 380.637 300.609 382.197V402Z" fill="#65C375"/>
<path d="M332.597 397.71C333.868 397.71 334.836 397.19 335.5 396.15C336.194 395.081 336.54 393.622 336.54 391.773V378.08C336.54 372.447 335.211 369.63 332.554 369.63C331.311 369.63 330.344 370.136 329.65 371.147C328.957 372.158 328.61 373.588 328.61 375.437V389.52C328.61 394.98 329.939 397.71 332.597 397.71ZM332.25 402.91C325.635 402.91 320.796 401.408 317.734 398.403C314.671 395.399 313.14 390.603 313.14 384.017C313.14 377.488 314.686 372.577 317.777 369.283C320.868 365.961 325.895 364.3 332.857 364.3C339.646 364.3 344.542 365.889 347.547 369.067C350.58 372.216 352.097 376.997 352.097 383.41C352.097 390.054 350.494 394.966 347.287 398.143C344.109 401.321 339.097 402.91 332.25 402.91Z" fill="#65C375"/>
<path d="M378.008 396.237C377.834 396.641 377.473 397.176 376.924 397.84C376.404 398.504 375.711 399.241 374.844 400.05C373.978 400.83 372.909 401.494 371.638 402.043C370.366 402.621 369.081 402.91 367.781 402.91C363.707 402.91 360.79 401.697 359.027 399.27C357.294 396.843 356.427 392.799 356.427 387.137V371.71L354.911 370.15V365.167H370.641V389.867C370.612 391.167 370.829 392.134 371.291 392.77C371.753 393.377 372.591 393.68 373.804 393.68C373.978 393.68 374.136 393.68 374.281 393.68C374.425 393.651 374.57 393.622 374.714 393.593C374.859 393.536 374.974 393.492 375.061 393.463C375.176 393.434 375.306 393.391 375.451 393.333C375.595 393.247 375.711 393.174 375.797 393.117C375.884 393.059 376 392.987 376.144 392.9C376.289 392.784 376.39 392.698 376.448 392.64C376.534 392.582 376.65 392.496 376.794 392.38C376.967 392.236 377.098 392.134 377.184 392.077V371.71L374.844 370.15V365.167H391.354V402H379.351L378.008 396.237Z" fill="#65C375"/>
<path d="M407.456 402.91C403.556 402.91 400.826 401.74 399.266 399.4C397.734 397.06 396.969 393.102 396.969 387.527V372.793H393.979V366.77L399.092 365.167L403.512 355.07H411.139V365.167H418.246V372.793H411.009V388.913C411.009 391.224 411.341 392.756 412.006 393.507C412.67 394.258 413.696 394.633 415.082 394.633C415.689 394.633 416.238 394.561 416.729 394.417C417.22 394.272 417.624 394.07 417.942 393.81V399.703C417.509 400.137 416.946 400.57 416.252 401.003C415.559 401.408 414.403 401.827 412.786 402.26C411.197 402.693 409.42 402.91 407.456 402.91Z" fill="#65C375"/>
</g>
<defs>
<radialGradient id="paint0_angular_108_197" cx="0" cy="0" r="1" gradientUnits="userSpaceOnUse" gradientTransform="translate(195.833 107.437) rotate(61.9275) scale(76.5 99.5715)">
<stop stop-color="#2F8A3F"/>
<stop offset="1" stop-color="#43B156"/>
</radialGradient>
<clipPath id="clip0_108_197">
<rect width="419" height="416" fill="white"/>
</clipPath>
</defs>
</svg>
